<svg id="图层_1" data-name="图层 1" xmlns="http://www.w3.org/2000/svg" viewBox="0 0 52.77 64.43"><defs><style>.cls-1{fill:#fdf6df;}.cls-2{fill:none;stroke:#bdb8a7;}.cls-2,.cls-3{stroke-miterlimit:10;}.cls-3{fill:#f3ecd7;stroke:#ddd7c3;stroke-width:0.44px;}.cls-4,.cls-5{fill:#ddd7c3;}.cls-5{font-size:6.55px;font-family:FZLTH4K--GBK1-0, FZLanTingHei4-GBK;}</style></defs><title>8.29数字说</title><rect class="cls-1" x="0.62" y="0.61" width="51.55" height="63.22"/><polygon class="cls-2" points="52.17 63.83 52.17 63.71 0.73 63.71 0.73 0.72 52.05 0.72 52.05 63.83 52.17 63.83 52.17 63.71 52.17 63.83 52.28 63.83 52.28 0.5 0.5 0.5 0.5 63.94 52.28 63.94 52.28 63.83 52.17 63.83"/><polygon class="cls-3" points="16.37 1.15 1.77 1.15 1.77 1.65 1.8 1.67 1.88 1.75 1.98 1.78 2.01 1.8 2.01 1.83 2 1.87 1.94 1.95 1.87 2.03 1.77 2.21 1.77 4.52 1.83 4.5 1.89 4.49 2.06 4.52 2.17 4.55 2.33 4.65 2.43 4.7 2.59 4.66 2.64 4.67 2.67 4.68 2.7 4.71 2.7 4.75 2.66 4.83 2.56 4.93 2.54 5 2.56 5.05 2.59 5.07 2.69 5.1 2.79 5.16 2.89 5.22 3.07 5.36 3.16 5.41 3.21 5.41 3.37 5.34 3.4 5.33 3.45 5.39 3.52 5.48 3.61 5.7 3.65 5.76 3.68 5.79 3.72 5.76 3.86 5.61 3.92 5.63 4.08 5.72 4.21 5.74 4.37 5.75 4.72 5.71 5.03 5.62 5.13 5.66 5.2 5.66 5.26 5.69 5.28 5.72 5.34 5.83 5.46 5.94 5.53 6.05 5.55 6.05 5.65 6 5.65 5.99 5.67 5.99 5.78 5.99 5.8 6 5.81 6.04 5.84 6.05 5.88 6.04 5.89 6.01 5.98 6.02 6 6.03 6.03 6.07 6.03 6.09 6 6.1 6.02 6.12 6.22 6.07 6.22 6.06 6.18 6.03 6.13 6.03 6.1 6.01 6.08 5.95 6.06 5.93 6.06 5.92 6.07 5.91 6.1 5.91 6.17 5.9 6.17 5.88 6.15 5.85 6.16 5.83 6.24 5.83 6.31 5.8 6.32 5.79 6.29 5.73 6.29 5.71 6.3 5.69 6.32 5.69 6.32 5.74 6.33 5.75 6.36 5.71 6.39 5.64 6.4 5.63 6.42 5.66 6.41 5.71 6.39 5.74 6.35 5.78 6.42 5.8 6.46 5.87 6.46 5.9 6.44 5.96 6.38 6.06 6.3 6.15 6.31 6.18 6.36 6.16 6.56 6.04 6.6 5.95 6.65 5.89 6.65 5.87 6.61 5.87 6.6 5.85 6.67 5.74 6.66 5.71 6.63 5.64 6.63 5.62 6.65 5.59 6.68 5.49 6.75 5.4 6.76 5.41 6.76 5.42 6.71 5.51 6.7 5.55 6.71 5.56 6.79 5.58 6.81 5.62 6.74 5.69 6.75 5.7 6.78 5.68 6.79 5.68 6.73 5.76 6.69 5.78 6.7 5.83 6.71 5.84 6.73 5.83 6.77 5.75 6.84 5.71 6.84 5.68 6.83 5.64 6.84 5.63 6.87 5.61 6.89 5.66 6.92 5.65 6.94 5.63 6.91 5.61 6.91 5.59 7.02 5.55 7.03 5.56 7.02 5.61 6.96 5.65 6.96 5.67 6.98 5.67 7.04 5.64 7.1 5.63 7.12 5.63 7.13 5.65 7.04 5.69 7.03 5.71 7.02 5.74 6.99 5.76 6.96 5.79 6.96 5.81 6.98 5.82 7.05 5.8 7.07 5.8 7.06 5.83 7.02 5.84 7.04 5.92 7 5.94 6.94 5.94 6.93 5.93 6.99 5.9 7 5.88 6.89 5.88 6.89 5.88 6.9 5.93 6.88 6 6.89 6.01 6.93 6.01 7.13 6 7.14 5.99 7.13 5.99 7.06 5.98 7.06 5.97 7.07 5.95 7.1 5.95 7.12 5.93 7.14 5.86 7.16 5.82 7.2 5.8 7.23 5.86 7.21 5.87 7.19 5.85 7.16 5.88 7.15 5.93 7.17 5.96 7.18 5.95 7.18 5.92 7.26 5.88 7.31 5.82 7.31 5.8 7.3 5.78 7.24 5.75 7.22 5.73 7.29 5.73 7.34 5.76 7.38 5.73 7.39 5.7 7.38 5.67 7.32 5.56 7.32 5.54 7.35 5.5 7.35 5.47 7.32 5.47 7.26 5.53 7.25 5.55 7.26 5.58 7.23 5.62 7.23 5.54 7.15 5.56 7.14 5.55 7.14 5.54 7.23 5.5 7.21 5.46 7.19 5.43 7.12 5.43 7.17 5.39 7.23 5.38 7.24 5.44 7.26 5.47 7.27 5.47 7.32 5.42 7.37 5.41 7.38 5.39 7.35 5.37 7.25 5.36 7.22 5.35 7.24 5.28 7.23 5.22 7.22 5.18 7.2 5.16 7.15 5.15 7.14 5.1 7.1 5.03 7.08 5.01 7.04 5.01 7.04 4.99 7.05 4.98 7.08 4.98 7.1 4.97 7.11 4.94 7.09 4.89 7.1 4.86 7.14 4.8 7.16 4.79 7.17 4.81 7.13 4.87 7.14 4.93 7.12 4.97 7.11 4.99 7.14 5.04 7.16 5.05 7.19 5.05 7.2 5.04 7.18 4.99 7.19 4.97 7.3 4.94 7.32 4.86 7.38 4.83 7.43 4.77 7.46 4.75 7.47 4.75 7.47 4.76 7.41 4.82 7.38 4.86 7.38 4.9 7.38 4.92 7.4 4.93 7.46 4.93 7.47 4.92 7.45 4.89 7.46 4.87 7.48 4.9 7.5 4.91 7.53 4.9 7.57 4.87 7.64 4.91 7.66 4.94 7.61 5 7.55 5.01 7.56 5.05 7.6 5.09 7.47 5.18 7.43 5.23 7.42 5.26 7.51 5.34 7.54 5.47 7.55 5.49 7.57 5.49 7.6 5.47 7.65 5.4 7.65 5.37 7.62 5.32 7.62 5.28 7.62 5.27 7.65 5.31 7.67 5.3 7.71 5.16 7.72 5.14 7.74 5.14 7.71 5.21 7.72 5.25 7.79 5.19 7.81 5.18 7.72 5.31 7.67 5.42 7.72 5.48 7.76 5.5 7.8 5.54 7.83 5.54 7.87 5.48 7.88 5.38 7.9 5.36 7.9 5.39 7.89 5.45 7.93 5.44 7.95 5.46 7.89 5.54 7.87 5.58 7.88 5.6 7.91 5.64 7.96 5.65 7.99 5.63 8 5.55 8.02 5.58 8.02 5.66 8.01 5.68 7.93 5.7 7.89 5.67 7.88 5.68 7.89 5.7 7.95 5.76 7.96 5.83 7.98 5.86 7.99 5.86 8.02 5.82 8.07 5.81 8.16 5.75 8.2 5.76 8.25 5.8 8.28 5.81 8.35 5.8 8.37 5.77 8.36 5.75 8.33 5.74 8.26 5.73 8.3 5.66 8.28 5.6 8.24 5.54 8.2 5.54 8.16 5.52 8.12 5.45 8.13 5.44 8.18 5.44 8.17 5.39 8.2 5.39 8.22 5.5 8.24 5.52 8.28 5.53 8.29 5.51 8.26 5.46 8.31 5.45 8.34 5.39 8.34 5.35 8.22 5.26 8.23 5.21 8.13 5.18 8.19 5.16 8.15 5.12 8.15 5.1 8.17 5.09 8.2 5.1 8.22 5.16 8.24 5.18 8.28 5.19 8.32 5.17 8.35 5.18 8.34 5.24 8.35 5.26 8.36 5.25 8.39 5.21 8.41 5.21 8.38 5.35 8.39 5.38 8.42 5.37 8.5 5.29 8.51 5.31 8.46 5.35 8.46 5.37 8.5 5.37 8.57 5.34 8.59 5.35 8.58 5.36 8.51 5.39 8.46 5.42 8.41 5.42 8.37 5.43 8.38 5.53 8.38 5.54 8.33 5.56 8.33 5.58 8.34 5.61 8.37 5.65 8.41 5.66 8.46 5.66 8.47 5.67 8.5 5.79 8.53 5.83 8.64 5.86 8.78 5.87 8.8 5.85 8.81 5.8 8.83 5.8 8.86 5.83 8.91 5.82 8.97 5.77 9 5.72 9.02 5.73 9.02 5.75 8.96 5.84 8.97 5.88 8.98 5.88 9 5.88 9.02 5.8 9.03 5.82 9.04 5.88 9.06 5.9 9.1 5.91 9.15 5.85 9.15 5.89 9.19 5.92 9.22 5.93 9.26 5.78 9.28 5.77 9.27 5.84 9.28 5.92 9.27 5.99 9.31 6.07 9.3 6.14 9.24 6.21 9.15 6.25 9.07 6.27 9.02 6.26 9 6.27 8.95 6.33 8.93 6.39 8.94 6.41 9.03 6.41 9.09 6.42 9.15 6.46 9.26 6.52 9.29 6.52 9.3 6.51 9.29 6.44 9.29 6.41 9.3 6.39 9.31 6.4 9.31 6.47 9.32 6.49 9.47 6.47 9.5 6.45 9.51 6.42 9.5 6.36 9.54 6.28 9.54 6.22 9.55 6.21 9.57 6.22 9.58 6.24 9.56 6.33 9.57 6.36 9.76 6.37 9.79 6.36 9.83 6.29 9.86 6.31 9.85 6.35 9.86 6.36 9.93 6.35 9.98 6.36 10.03 6.32 10.07 6.35 10.15 6.35 10.2 6.33 10.25 6.29 10.27 6.2 10.28 6.19 10.3 6.2 10.31 6.25 10.28 6.29 10.28 6.31 10.29 6.31 10.36 6.28 10.5 6.19 10.55 6.12 10.54 6.04 10.61 5.97 10.62 5.95 10.56 5.85 10.47 5.75 10.44 5.74 10.28 5.71 10.26 5.69 10.25 5.67 10.27 5.64 10.29 5.63 10.32 5.66 10.37 5.66 10.41 5.69 10.44 5.68 10.45 5.66 10.44 5.6 10.43 5.59 10.38 5.58 10.37 5.55 10.59 5.38 10.6 5.38 10.62 5.41 10.63 5.41 10.66 5.34 10.67 5.33 10.69 5.34 10.72 5.42 10.64 5.49 10.55 5.53 10.54 5.55 10.59 5.63 10.61 5.68 10.62 5.76 10.63 5.79 10.65 5.79 10.7 5.75 10.71 5.76 10.72 5.79 10.7 5.83 10.71 5.89 10.72 5.9 10.76 5.88 10.76 5.89 10.75 5.93 10.72 5.94 10.73 5.96 10.77 6.01 10.8 6.02 10.8 5.94 10.81 5.91 10.86 5.88 10.94 5.8 10.97 5.79 10.99 5.8 10.97 5.87 10.93 5.89 10.91 5.92 10.9 6.03 10.88 6.12 10.89 6.19 10.91 6.21 10.99 6.23 11.04 6.29 11.11 6.31 11.14 6.31 11.22 6.27 11.22 6.23 11.17 6.08 11.14 5.96 11.14 5.94 11.16 5.93 11.16 5.93 11.15 5.86 11.16 5.8 11.16 5.79 11.17 5.76 11.18 5.71 11.22 5.63 11.25 5.64 11.28 5.67 11.33 5.7 11.41 5.71 11.48 5.7 11.5 5.69 11.57 5.67 11.61 5.64 11.62 5.63 11.65 5.6 11.67 5.58 11.69 5.54 11.7 5.52 11.71 5.48 11.76 5.16 11.8 5.09 11.81 5.06 11.84 5.03 11.87 5 11.87 5 11.87 5 11.88 5 11.96 4.98 12.05 4.99 12.09 4.99 12.18 4.99 12.33 4.9 12.38 4.89 12.47 4.89 12.5 4.9 12.61 4.92 12.86 4.87 13.09 4.87 13.16 4.82 13.19 4.81 13.19 4.8 13.2 4.79 13.2 4.78 13.2 4.76 13.16 4.68 13.13 4.6 13.1 4.47 13.08 4.21 13.06 4.14 13.03 4.03 13.03 4.02 13.03 3.98 13.03 3.98 13.07 3.96 13.07 3.96 13.07 3.96 13.18 3.97 13.25 3.94 13.29 3.93 13.3 3.94 13.35 3.96 13.49 4.05 13.55 4.07 13.58 4.06 13.61 4.04 13.65 3.97 13.67 3.94 13.68 3.92 13.7 3.91 13.78 3.94 13.89 4.01 13.95 3.98 13.95 3.98 13.98 3.94 14.02 3.79 14.03 3.78 14.04 3.76 14.14 3.7 14.34 3.64 14.39 3.61 14.35 3.53 14.21 3.33 14.21 3.32 14.21 3.32 14.21 3.32 14.19 3.25 14.18 3.16 14.14 3.03 14.15 3.01 14.15 3.01 14.16 3 14.19 3.01 14.24 3.03 14.25 3.02 14.27 3.01 14.31 2.77 14.33 2.71 14.33 2.71 14.33 2.71 14.36 2.7 14.38 2.69 14.45 2.72 14.52 2.66 14.73 2.62 14.84 2.55 14.85 2.55 14.85 2.55 14.96 2.52 15.11 2.48 15.25 2.41 15.28 2.38 15.29 2.36 15.29 2.35 15.28 2.31 15.26 2.19 15.26 2.19 15.26 2.18 15.28 2.18 15.3 2.16 15.51 2.12 15.72 2.03 15.97 1.79 16.1 1.67 16.2 1.54 16.21 1.53 16.21 1.51 16.18 1.43 16.27 1.32 16.3 1.25 16.34 1.2 16.37 1.15"/><polyline class="cls-4" points="47.27 3.9 46.34 6.04 47.2 6.4 48.13 4.26"/><polyline class="cls-4" points="43.55 10.89 41.68 14.77 42.52 15.16 44.39 11.29"/><rect class="cls-4" x="41.63" y="19.99" width="0.94" height="4.88"/><polyline class="cls-4" points="41.79 32.48 38.36 35.55 39 36.23 42.42 33.16"/><polyline class="cls-4" points="31.45 46.43 30.21 48.17 30.97 48.7 32.22 46.96"/><rect class="cls-4" x="20.64" y="56.71" width="2.8" height="0.92"/><rect class="cls-4" x="8.35" y="45.07" width="0.94" height="5.81"/><polygon class="cls-4" points="14.88 34.31 15.82 34.39 16.13 30.73 15.2 30.65 14.88 34.31"/><polyline class="cls-4" points="15.78 24.68 13.6 19.8 12.74 20.17 14.92 25.05"/><path class="cls-3" d="M16.82,46c-.52,0-.69.65-.08.65s.69-.65.08-.65"/><path class="cls-3" d="M20.3,44.44c-.28,0-1,.41-.38.41.28,0,1-.41.38-.41"/><path class="cls-3" d="M20,46.33c-.3,0-1,.45-.37.45.3,0,1-.45.37-.45"/><path class="cls-3" d="M23,46.25c-.41,0-.93.61-.32.61.41,0,.93-.61.32-.61"/><path class="cls-3" d="M24.74,43.9c-.27,0-1,.39-.38.39.27,0,1-.39.38-.39"/><path class="cls-3" d="M25.83,41.66c-.35,0-1,.51-.35.51.35,0,1-.51.35-.51"/><path class="cls-3" d="M30.95,39.28c-.19,0-1,.36-.59.36.19,0,1-.36.59-.36"/><path class="cls-3" d="M32.76,40.81c-.38,0-.94.57-.33.57.38,0,.94-.57.33-.57"/><path class="cls-3" d="M37.49,36.73c-.36,0-1,.54-.34.54.36,0,.95-.54.34-.54"/><path class="cls-3" d="M34.45,31.07c-.28,0-1,.4-.38.4.28,0,1-.4.38-.4"/><path class="cls-3" d="M26.39,29.93c-.33,0-1,.49-.35.49.33,0,1-.49.35-.49"/><path class="cls-3" d="M20.15,28c-.5,0-.71.61-.09.61s.71-.61.09-.61"/><path class="cls-3" d="M21.4,22.86c-.3,0-1,.44-.37.44.3,0,1-.44.37-.44"/><path class="cls-3" d="M23.05,21.44c-.37,0-.95.55-.34.55.37,0,.95-.55.34-.55"/><path class="cls-3" d="M28.34,18.76c-.32,0-1,.47-.36.47.32,0,1-.47.36-.47"/><path class="cls-3" d="M30,19.25c-.39,0-.94.57-.33.57.39,0,.94-.57.33-.57"/><path class="cls-3" d="M28.62,21.79c-.28,0-1,.41-.38.41.28,0,1-.41.38-.41"/><path class="cls-3" d="M25,21.79c-.28,0-1,.4-.38.4.28,0,1-.4.38-.4"/><path class="cls-3" d="M35,23c-.23.1-.41.21-.17.21l.16,0A.25.25,0,0,1,35,23"/><path class="cls-3" d="M35.42,22.77A.47.47,0,0,0,35,23a1.6,1.6,0,0,1,.43-.13c.34,0-.14.22-.43.3,0,.1.15.18.37.18.51,0,.7-.63.09-.63"/><path class="cls-3" d="M35.39,22.92A1.64,1.64,0,0,0,35,23a.25.25,0,0,0,0,.18c.29-.08.77-.3.43-.3"/><text class="cls-5" transform="translate(15.3 31.28) scale(1.02 1)">南海诸岛</text></svg>